<?xml version="1.0" encoding="utf-8"?>
<!-- Generator: Adobe Illustrator 24.3.0, SVG Export Plug-In . SVG Version: 6.00 Build 0)  -->
<svg version="1.1" id="Layer_1" xmlns="http://www.w3.org/2000/svg" xmlns:xlink="http://www.w3.org/1999/xlink" x="0px" y="0px"
	 viewBox="0 0 34 34" style="enable-background:new 0 0 34 34;" xml:space="preserve">
<style type="text/css">
	.st0{fill:#FFFFFF;}
</style>
<g id="Layer_2_1_">
	<g id="Layer_1-2">
		<path class="st0" d="M17,10.2c-7.4,0-11.2,1.6-11.2,4.8c0,4.8,2.4,6.9,4.7,6.9c0.1,0,0.1,0,0.2,0c0.2,0.7,0.6,1.2,1.1,1.7
			c0.1,0.1,0.2,0.1,0.3,0.1c0.1,0,0.2,0,0.3-0.1c0.1-0.1,0.1-0.4,0-0.5c-0.4-0.4-0.7-0.9-0.9-1.4c0.9-0.4,1.8-1,2.5-1.8
			c0.9-0.8,2-1.7,3-1.7c0.1,0,0.2,0,0.3,0.1c-0.1,0.2-0.2,0.4-0.3,0.6c-0.4,0.5-0.6,1.1-0.7,1.7c0,1.1,0.5,2.2,1.3,3
			c0.1,0.1,0.2,0.1,0.3,0.1c0.1,0,0.2,0,0.3-0.1c0.1-0.1,0.1-0.4,0-0.5c-0.7-0.6-1.1-1.5-1.2-2.4c0.1-0.5,0.3-1,0.5-1.4
			c0.2-0.2,0.3-0.5,0.4-0.8c0.7,0.4,1.4,0.9,2,1.4c0.6,0.6,1.3,1.1,2.1,1.5c0.2,0.8,0.6,1.5,1.2,2.1c0.1,0.1,0.2,0.1,0.3,0.1
			c0.1,0,0.2,0,0.3-0.1c0.1-0.1,0.1-0.2,0.1-0.3c0-0.1,0-0.2-0.1-0.3c-0.3-0.4-0.6-0.8-0.8-1.3c0.2,0,0.3,0.1,0.5,0.1
			c2.3,0,4.7-2.2,4.7-6.9C28.2,11.9,24.4,10.2,17,10.2z M22.8,20.8c0.1-0.5,0.3-1,0.6-1.4c0.4-0.5,0.6-1,0.6-1.6
			c-0.1-0.8-0.6-1.5-1.2-2l1.3-0.2l-0.1-0.6l-2.5,0.3l0.5,2.5l0.6-0.1l-0.2-1.3c0.5,0.4,0.8,0.9,0.9,1.5c0,0.4-0.2,0.9-0.5,1.2
			c-0.4,0.5-0.6,1.1-0.7,1.7c-0.5-0.4-1.1-0.8-1.5-1.2c-0.7-0.6-1.5-1.2-2.3-1.6c0,0,0,0,0-0.1c-0.1-0.8-0.6-1.5-1.2-2l1.3-0.1
			L18.1,15l-2.5,0.3l0.4,2.4v0.1l0.6-0.1l-0.2-1.3c0.4,0.3,0.8,0.8,0.9,1.3c-0.1,0-0.2-0.1-0.4-0.1l0,0c-1.2,0-2.4,1-3.5,1.9
			c-0.6,0.6-1.4,1.1-2.2,1.5c0-0.1,0-0.2,0-0.3c0.1-0.5,0.3-1,0.6-1.4c0.4-0.5,0.6-1,0.6-1.6c-0.1-0.8-0.5-1.5-1.2-2l1.3-0.1
			l-0.1-0.6l-2.5,0.3l0.5,2.5l0.6-0.1l-0.2-1.3c0.5,0.4,0.8,0.9,0.9,1.5c0,0.4-0.2,0.9-0.5,1.2c-0.4,0.5-0.6,1.1-0.7,1.7
			c0,0.2,0,0.3,0,0.5l0,0c-1.9,0-3.9-1.9-3.9-6.2c0-2.6,3.6-4,10.4-4s10.4,1.4,10.4,4c0,4.2-2,6.2-4,6.2c-0.2,0-0.5-0.1-0.7-0.1
			C22.7,21,22.7,20.9,22.8,20.8L22.8,20.8z"/>
		<path class="st0" d="M17,0C7.6,0,0,7.6,0,17s7.6,17,17,17s17-7.6,17-17S26.4,0,17,0z M17,33C8.2,33,1,25.8,1,17S8.2,1,17,1
			s16,7.2,16,16S25.8,33,17,33z"/>
	</g>
</g>
</svg>
