<?xml version="1.0" encoding="utf-8"?>
<!-- Generator: Adobe Illustrator 24.3.0, SVG Export Plug-In . SVG Version: 6.00 Build 0)  -->
<svg version="1.1" id="Layer_1" xmlns="http://www.w3.org/2000/svg" xmlns:xlink="http://www.w3.org/1999/xlink" x="0px" y="0px"
	 viewBox="0 0 34 34" style="enable-background:new 0 0 34 34;" xml:space="preserve">
<style type="text/css">
	.st0{fill:#FFFFFF;}
</style>
<g id="Layer_2_1_">
	<g id="Layer_1-2">
		<path class="st0" d="M17,0C7.6,0,0,7.6,0,17s7.6,17,17,17s17-7.6,17-17S26.4,0,17,0z M16.4,20.2h0.1c-0.1,0.1-0.3,0.3-0.5,0.4
			c-0.1-0.1-0.1-0.2-0.1-0.3C16,20.2,16.2,20.2,16.4,20.2L16.4,20.2z M17.2,20c-0.1-0.3-0.5-0.5-0.8-0.5c-0.3,0-0.6,0-0.9,0.1
			c-0.2-0.4-0.4-0.8-0.6-1.1c-0.1-0.3-0.2-0.6-0.2-0.9v-0.1c0-0.2,0.1-0.4,0.2-0.5c0.8,0,1.5,0,2.3,0.1h0c2.1,0.2,4.2,0.2,6.4,0.1
			c2-0.2,4-0.7,5.9-1.3c0.2,0,0.3,0,0.4,0.2c0.1,0.1,0.1,0.2,0.1,0.2c-0.7,1.8-0.6,7.7-0.1,9.6c-0.1,0.3-0.3,0.6-0.4,0.6
			c-1.7,0-3.3,0.2-5,0.4c-1.2,0.2-2.4,0.7-3.5,1.4l0,0c-0.4,0.3-0.9,0.5-1.5,0.7l0,0c-0.9-1.7-1.7-3.6-2.4-5.4v-0.1
			c-0.3-0.7-0.6-1.4-0.8-2.1C17,21,17.4,20.4,17.2,20L17.2,20z M16.8,14.6c0-0.1,0.1-0.1,0.1-0.2c0.1-0.2,0.2-0.5,0.1-0.7
			c-0.1-0.2-0.3-0.5-0.5-0.6l-0.1-0.1c0.1-0.9,0.3-1.9,0.7-2.8c0.1-0.2,0.1-0.3,0.2-0.4c0.3-0.5,0.2-1.1-0.2-1.5
			c-0.1-0.6,0-0.7,0.4-1.3l0.4-0.6c0.6-0.9,3.4-2.3,4.5-2.4c2-0.4,4.1,0.1,5.6,1.4c1.2,1,2.1,2.4,2.4,4c0,1.9-0.3,3.9-1,5.7
			c-1.8,0.6-3.7,1.1-5.7,1.3c-2.1,0.2-4.1,0.1-6.2-0.1l-1.5-0.1c0-0.1,0.1-0.1,0.1-0.2c0-0.1,0.2-0.4,0.3-0.6l0.2-0.4l0.2-0.4
			L16.8,14.6z M30.8,16.5c0.1-0.4,0-0.7-0.2-1c-0.1-0.1-0.3-0.2-0.5-0.3c0.6-1.8,0.9-3.8,0.9-5.7c0-0.1,0-0.2,0-0.2
			c2.8,5,2.7,11.1-0.3,16C30.3,23.3,30.2,18,30.8,16.5L30.8,16.5z M9.9,19.8v-1.2L13,21l-3.1,2.4v-1.2h-5v1.2L1.8,21l3.1-2.4v1.2
			L9.9,19.8z M17,33c-7,0-13.1-4.5-15.2-11.1l3.9,3v-2h3.4v2l4.5-3.4l0.6-0.5l-5.1-3.9v2H5.7v-2l-4.3,3.3C1.1,19.3,1,18.1,1,17
			C1,8.2,8.2,1,17,1c3,0,5.9,0.8,8.4,2.4c-1.1-0.3-2.2-0.3-3.3-0.1c-1.2,0.2-4.2,1.6-5,2.8l-0.4,0.6c-0.5,0.5-0.7,1.3-0.5,2
			c0,0.1,0.1,0.3,0.2,0.3c0.2,0.1,0.2,0.4,0.1,0.5c-0.1,0.2-0.2,0.4-0.3,0.6c0,0-1.1,2.9-0.6,3.5c0.1,0.1,0.3,0.2,0.4,0.3h0.1l0,0
			c0,0.1,0,0.1,0,0.2c0,0.1-0.1,0.1-0.1,0.2c-0.1,0.2-0.2,0.3-0.3,0.5l-0.2,0.4c-0.1,0.2-0.2,0.5-0.3,0.6l-0.1,0.1
			c0,0.1-0.1,0.2-0.2,0.3c-0.2,0-0.4,0.1-0.5,0.2c-0.3,0.3-0.5,0.7-0.5,1.1v0.1c0,0.4,0.1,0.9,0.3,1.3c0.8,1.6,1.5,3.2,2.1,4.9
			c1.9,4.9,2.4,5.8,2.9,5.9h0.2c0.7-0.1,1.3-0.4,1.9-0.8c1-0.7,2.1-1.1,3.2-1.3c1.5-0.2,3.1-0.3,4.7-0.4C26.3,30.9,21.8,33,17,33z"
			/>
	</g>
</g>
</svg>
