<?xml version="1.0" encoding="utf-8"?>
<!-- Generator: Adobe Illustrator 24.3.0, SVG Export Plug-In . SVG Version: 6.00 Build 0)  -->
<svg version="1.1" id="Layer_1" xmlns="http://www.w3.org/2000/svg" xmlns:xlink="http://www.w3.org/1999/xlink" x="0px" y="0px"
	 viewBox="0 0 33.7 34.2" style="enable-background:new 0 0 33.7 34.2;" xml:space="preserve">
<style type="text/css">
	.st0{fill:#FFFFFF;}
</style>
<g id="Layer_2_1_">
	<g id="Layer_1-2">
		<polygon class="st0" points="10.9,22 11.5,23 12.2,22.6 11.6,21.6 		"/>
		<polygon class="st0" points="9.9,18.6 10.3,19.1 10.8,18.6 10.1,17.7 9.6,18.1 8.9,18.5 9.5,19.5 10.2,19.1 		"/>
		<polygon class="st0" points="10.6,19.8 9.9,20.2 10.5,21.2 11.2,20.8 		"/>
		<path class="st0" d="M7.5,15.9l0.5-0.4l0.2-0.1L7.8,15c-0.1-0.2-0.3-0.2-0.5-0.1c-0.2,0.1-0.2,0.3-0.1,0.5L7.5,15.9z"/>
		<polygon class="st0" points="14.8,23.3 14.1,22.4 13.5,22.9 14.3,23.8 		"/>
		<polygon class="st0" points="10.8,19.7 11.6,20.6 12.2,20.1 11.4,19.2 		"/>
		<polygon class="st0" points="12.9,22.2 13.5,21.7 12.7,20.8 12.1,21.3 		"/>
		<polygon class="st0" points="9.1,17.4 9.2,17.3 9.2,17.3 9.6,17 8.8,16.2 8.4,16.4 7.9,16.7 8.5,17.7 8.9,17.5 8.9,17.5 		"/>
		<polygon class="st0" points="16,24.8 15.3,23.9 14.7,24.4 15.5,25.3 		"/>
		<path class="st0" d="M9.3,14.7c0.2,0,0.3,0,0.5,0c0.3,0,0.7-0.1,1-0.2c1.1-0.6,1.5-2,0.9-3.1c-0.2-0.4-0.5-0.7-0.9-0.9
			C10,10.1,9.2,9.8,8.4,9.5L8,9.4L7.9,9.8c-0.2,0.8-0.3,1.5-0.4,2.3l0,0c-0.1,0.5,0,1,0.2,1.4C8.1,14.2,8.6,14.6,9.3,14.7z
			 M8.2,12.3L8.2,12.3c0.1-0.7,0.2-1.3,0.3-1.9c0.6,0.2,1.2,0.4,1.7,0.7l0.1,0.1c0.3,0.1,0.5,0.3,0.6,0.6c0.4,0.7,0.1,1.6-0.6,2.1
			C10.1,14,9.8,14,9.4,14c-0.4-0.1-0.8-0.3-1-0.7C8.3,13,8.2,12.6,8.2,12.3z"/>
		<path class="st0" d="M16.9,0C7.5,0.1,0,7.7,0,17.1c0,9.4,7.5,17,16.9,17.1c9.4-0.1,16.9-7.7,16.9-17.1C33.8,7.7,26.2,0.1,16.9,0z
			 M29.2,27.1c-1.6,0-3.2,0.2-4.8,0.4c-1.2,0.2-2.4,0.7-3.5,1.4h-0.1c-0.4,0.3-0.9,0.5-1.4,0.7l0,0c-0.9-1.8-1.7-3.6-2.4-5.4v0
			c-0.3-0.8-0.6-1.5-0.9-2.1c0.2-0.1,0.4-0.2,0.6-0.4c0.3-0.2,0.4-0.6,0.3-0.9c-0.1-0.2-0.2-0.3-0.4-0.4c-0.4-0.1-0.8-0.1-1.2,0
			c-0.2-0.4-0.4-0.8-0.6-1.1c-0.1-0.3-0.2-0.6-0.2-0.9v-0.1c0-0.2,0.1-0.4,0.2-0.5c0.8,0,1.6,0,2.3,0.1c2.1,0.2,4.2,0.2,6.3,0.1
			c2-0.2,3.9-0.7,5.8-1.3c0.2,0,0.3,0,0.5,0.1c0.1,0.1,0.1,0.2,0.1,0.3c-0.6,1.8-0.6,7.5-0.1,9.5C29.6,26.6,29.4,26.9,29.2,27.1z
			 M16.4,20.9c0,0.1-0.1,0.1-0.1,0.1c-0.1,0.1-0.2,0.2-0.4,0.2c-0.1-0.1-0.1-0.2-0.1-0.3C16,20.9,16.2,20.9,16.4,20.9z M15.9,16.7
			c0-0.1,0.2-0.4,0.3-0.6l0-0.1l0.1-0.2c0.1-0.1,0.2-0.3,0.2-0.4l0.1-0.2c0.1-0.2,0.2-0.5,0.1-0.7c-0.1-0.2-0.2-0.5-0.5-0.6
			l-0.1-0.1c0.1-0.9,0.4-1.8,0.7-2.7c0.1-0.2,0.1-0.3,0.2-0.4c0.4-0.5,0.3-1.2-0.2-1.6c-0.1-0.6,0-0.7,0.4-1.3l0.4-0.6
			c0.6-1,3.4-2.3,4.4-2.4c3.7-0.7,7.2,1.8,7.9,5.4c0,0,0,0,0,0c0,1.9-0.3,3.9-1,5.7c-1.8,0.6-3.7,1.1-5.6,1.3
			c-2,0.2-4.1,0.1-6.1-0.1l-1.5-0.1C15.9,16.8,15.9,16.8,15.9,16.7z M30.6,17.1c0.1-0.4,0-0.7-0.2-1c-0.1-0.1-0.3-0.2-0.5-0.3
			c0.6-1.8,0.9-3.8,0.9-5.7c0-0.4-0.1-0.8-0.2-1.1c3,5.1,2.9,11.4-0.2,16.4C30,23.2,30,18.6,30.6,17.1z M2.4,10.4
			c0.9,0.3,1.8,0.6,2.7,1.1h0.1c1,0.5,1.5,1.6,1.2,2.7c-0.2,0.6-0.6,1.1-1.1,1.4c-0.6,0.2-1.2,0.3-1.8,0.1c-0.6-0.1-1-0.5-1.3-1
			c-0.2-0.5-0.3-1-0.2-1.5v-0.1c0.1-0.8,0.2-1.7,0.4-2.5L2.4,10.4z M16.9,33.2C8,33.1,1,25.9,1,17.1c0-0.9,0.1-1.8,0.2-2.6
			c0,0.2,0.1,0.5,0.2,0.7c0.6,1,1.6,1.6,2.8,1.5c0.5,0,0.9-0.1,1.3-0.3c1.5-0.8,2-2.7,1.2-4.2c-0.3-0.5-0.7-1-1.3-1.2
			C4.6,10.4,3.7,10,2.8,9.8C5.4,4.4,10.9,1,16.9,1c3.7,0,7.3,1.3,10.1,3.7c-1.5-0.8-3.2-1.1-4.9-0.7c-1.2,0.2-4.2,1.6-4.9,2.8
			c-0.1,0.2-0.3,0.4-0.4,0.6c-0.5,0.5-0.7,1.3-0.5,2c0,0.1,0.1,0.3,0.2,0.4c0.2,0.1,0.2,0.4,0.1,0.5c-0.1,0.2-0.2,0.4-0.3,0.6
			c0,0.1-1,2.9-0.6,3.5c0.1,0.1,0.3,0.2,0.4,0.3c0,0,0.1,0,0.1,0s0,0.1,0,0.2l-0.1,0.1v0.1c-0.1,0.2-0.2,0.3-0.3,0.5
			c0,0.1-0.1,0.2-0.2,0.4s-0.2,0.5-0.3,0.6v0.1l-0.1,0.1c0,0.1-0.1,0.2-0.1,0.3c-0.2,0-0.4,0.1-0.5,0.2c-0.3,0.3-0.5,0.6-0.6,1.1
			v0.1c0,0.4,0.1,0.9,0.3,1.3c0.8,1.6,1.5,3.2,2.1,4.9c0.2,0.4,0.3,0.8,0.5,1.2l-0.3-0.4l-0.1-0.1l-0.6,0.5l0.4,0.5l-7.1,0
			c-0.1,0-0.2,0-0.3,0.1c-0.1,0.1-0.1,0.2-0.1,0.3V27l-3.2-1.9l3.2-1.8v0.6c0,0.2,0.2,0.4,0.4,0.4c0,0,0,0,0,0h3.1h0.9l-0.8-1.4
			l-0.6,0.4l0.1,0.2H9.6v-0.9c0-0.1-0.1-0.3-0.2-0.3c-0.1-0.1-0.3-0.1-0.4,0l-4.3,2.5c-0.1,0.1-0.2,0.2-0.2,0.3
			c0,0.1,0.1,0.3,0.2,0.3L9,28c0.1,0,0.1,0.1,0.2,0c0.2,0,0.4-0.2,0.4-0.4v-0.9l7.3,0.1h0.3l0,0h0.1c1.1,2.8,1.5,3.5,1.9,3.5h0.2
			c0.7-0.1,1.3-0.4,1.9-0.8c1-0.6,2-1.1,3.2-1.3c1.4-0.2,2.9-0.3,4-0.3C25.5,31.2,21.3,33.1,16.9,33.2z"/>
	</g>
</g>
</svg>
